Coordinates
version=1
nRows=16
nColumns=40
inDegrees=yes

Units are S.I. units (second, meters, Newtons, ...)
If the header above contains a line with 'inDegrees', this indicates whether rotational values are in degrees (yes) or radians (no).

endheader
time	pelvis_tilt	pelvis_list	pelvis_rotation	pelvis_tx	pelvis_ty	pelvis_tz	hip_flexion_r	hip_adduction_r	hip_rotation_r	knee_angle_r	knee_angle_r_beta	ankle_angle_r	subtalar_angle_r	mtp_angle_r	hip_flexion_l	hip_adduction_l	hip_rotation_l	knee_angle_l	knee_angle_l_beta	ankle_angle_l	subtalar_angle_l	mtp_angle_l	lumbar_extension	lumbar_bending	lumbar_rotation	arm_flex_r	arm_add_r	arm_rot_r	elbow_flex_r	pro_sup_r	wrist_flex_r	wrist_dev_r	arm_flex_l	arm_add_l	arm_rot_l	elbow_flex_l	pro_sup_l	wrist_flex_l	wrist_dev_l
      5.38000000	    -50.20139532	     -6.52346201	     12.36752131	      0.02893508	      0.61351903	     -1.17338157	    108.50642798	    -48.09265682	     -1.60232289	     75.13318568	      1.31132147	      5.50951929	    -10.78910330	      0.00000000	    112.52471565	    -22.76843330	     -4.89385413	     67.97415055	      1.18637273	     -3.33637950	      0.52707205	      0.00000000	      0.00000000	      0.00000000	      0.00000000	     44.99990412	    -15.00000000	     44.99990412	     75.00017585	     45.00000026	      0.00000000	      0.00000000	     44.99990412	    -15.00000000	     44.99990412	     75.00017585	     45.00000026	      0.00000000	      0.00000000
      5.38500000	    -50.14021564	     -6.47028450	     12.39273852	      0.02928347	      0.61581491	     -1.17359792	    108.01203987	    -48.08089052	     -1.91241390	     74.68763104	      1.30354507	      5.38288838	    -10.74482457	      0.00000000	    112.08824270	    -22.73989929	     -5.12475710	     67.58033617	      1.17949938	     -3.43876395	      0.62024238	      0.00000000	      0.00000000	      0.00000000	      0.00000000	     44.99990490	    -15.00000000	     44.99990490	     75.00017585	     45.00000026	      0.00000000	      0.00000000	     44.99990490	    -15.00000000	     44.99990490	     75.00017585	     45.00000026	      0.00000000	      0.00000000
      5.39000000	    -50.07806852	     -6.42134536	     12.41368474	      0.02966364	      0.61804799	     -1.17381583	    107.52367423	    -48.07209248	     -2.22709549	     74.25480351	      1.29599081	      5.24585196	    -10.70014438	      0.00000000	    111.66563232	    -22.72051748	     -5.34962642	     67.20216846	      1.17289910	     -3.55120717	      0.71890908	      0.00000000	      0.00000000	      0.00000000	      0.00000000	     44.99990566	    -15.00000000	     44.99990566	     75.00017585	     45.00000026	      0.00000000	      0.00000000	     44.99990566	    -15.00000000	     44.99990566	     75.00017585	     45.00000026	      0.00000000	      0.00000000
      5.39500000	    -49.79064811	     -6.67641754	     12.42763487	      0.03047162	      0.62078521	     -1.17429613	    106.30554651	    -48.16421898	     -3.22716542	     73.76659234	      1.28746991	      5.23761026	    -10.55901749	      0.00000000	    111.24516606	    -22.64957422	     -5.22881505	     66.85138379	      1.16677676	     -3.65567278	      0.85650791	      0.00000000	      0.00000000	      0.00000000	      0.00000000	     44.99990626	    -15.00000000	     44.99990626	     75.00017585	     45.00000026	      0.00000000	      0.00000000	     44.99990626	    -15.00000000	     44.99990626	     75.00017585	     45.00000026	      0.00000000	      0.00000000
      5.40000000	    -49.62231801	     -6.81044242	     12.44272506	      0.03109200	      0.62320508	     -1.17465641	    105.42439188	    -48.20109182	     -3.93526725	     73.30421260	      1.27939987	      5.18630406	    -10.48699695	      0.00000000	    110.85893618	    -22.60265859	     -5.24283685	     66.49468271	      1.16055115	     -3.78526502	      0.98527177	      0.00000000	      0.00000000	      0.00000000	      0.00000000	     44.99990683	    -15.00000000	     44.99990683	     75.00017585	     45.00000026	      0.00000000	      0.00000000	     44.99990683	    -15.00000000	     44.99990683	     75.00017585	     45.00000026	      0.00000000	      0.00000000
      5.40500000	    -49.83069244	     -6.28469852	     12.51473068	      0.03105378	      0.62464969	     -1.17455756	    105.98728624	    -48.08631499	     -3.15924729	     72.99016552	      1.27391871	      4.88717983	    -10.54057875	      0.00000000	    110.35839745	    -22.63805761	     -6.01266086	     66.10331655	      1.15372052	     -3.86543225	      1.07697717	      0.00000000	      0.00000000	      0.00000000	      0.00000000	     44.99990750	    -15.00000000	     44.99990750	     75.00017585	     45.00000026	      0.00000000	      0.00000000	     44.99990750	    -15.00000000	     44.99990750	     75.00017585	     45.00000026	      0.00000000	      0.00000000
      5.41000000	    -49.58952910	     -6.51946847	     12.51778654	      0.03184749	      0.62712460	     -1.17500615	    104.88582218	    -48.15062633	     -4.07899838	     72.52986326	      1.26588492	      4.89184335	    -10.40312053	      0.00000000	    109.99554422	    -22.58738434	     -5.90196590	     65.78662683	      1.14819324	     -3.94794237	      1.19270732	      0.00000000	      0.00000000	      0.00000000	      0.00000000	     44.99990809	    -15.00000000	     44.99990809	     75.00017585	     45.00000026	      0.00000000	      0.00000000	     44.99990809	    -15.00000000	     44.99990809	     75.00017585	     45.00000026	      0.00000000	      0.00000000
      5.41500000	    -49.30413978	     -6.66186661	     12.51611689	      0.03276512	      0.62967984	     -1.17536048	    103.82516385	    -48.17888117	     -4.88100852	     72.07935074	      1.25802199	      4.78309163	    -10.36300739	      0.00000000	    109.51403195	    -22.60388672	     -5.88617178	     65.48393881	      1.14291034	     -3.87636511	      1.54346163	      0.00000000	      0.00000000	      0.00000000	      0.00000000	     44.99990856	    -15.00000000	     44.99990856	     75.00017585	     45.00000026	      0.00000000	      0.00000000	     44.99990856	    -15.00000000	     44.99990856	     75.00017585	     45.00000026	      0.00000000	      0.00000000
      5.42000000	    -49.56651507	     -6.11376818	     12.56786769	      0.03266920	      0.63089794	     -1.17523573	    104.50684377	    -48.05260211	     -4.01775746	     71.78445398	      1.25287507	      4.56675339	    -10.34150980	      0.00000000	    109.07200451	    -22.63148466	     -6.68345122	     65.10398180	      1.13627884	     -4.06337249	      1.39785678	      0.00000000	      0.00000000	      0.00000000	      0.00000000	     44.99990916	    -15.00000000	     44.99990916	     75.00017585	     45.00000026	      0.00000000	      0.00000000	     44.99990916	    -15.00000000	     44.99990916	     75.00017585	     45.00000026	      0.00000000	      0.00000000
      5.42500000	    -49.23285802	     -6.38876580	     12.52387161	      0.03371258	      0.63349480	     -1.17558538	    103.21490051	    -48.06396504	     -5.08529810	     71.32637299	      1.24488005	      4.48781902	    -10.26778953	      0.00000000	    108.66359806	    -22.67270528	     -6.51326674	     64.83265046	      1.13154321	     -4.04224011	      1.69416706	      0.00000000	      0.00000000	      0.00000000	      0.00000000	     44.99990958	    -15.00000000	     44.99990958	     75.00017585	     45.00000026	      0.00000000	      0.00000000	     44.99990958	    -15.00000000	     44.99990958	     75.00017585	     45.00000026	      0.00000000	      0.00000000
      5.43000000	    -49.22340997	     -6.21545900	     12.60807082	      0.03414764	      0.63531092	     -1.17586432	    103.01719971	    -48.08927048	     -5.04848415	     70.96956034	      1.23865250	      4.41367252	    -10.15188215	      0.00000000	    108.22322946	    -22.60537483	     -6.87834130	     64.48441096	      1.12546529	     -4.20803846	      1.69839277	      0.00000000	      0.00000000	      0.00000000	      0.00000000	     44.99991010	    -15.00000000	     44.99991010	     75.00017585	     45.00000026	      0.00000000	      0.00000000	     44.99991010	    -15.00000000	     44.99991010	     75.00017585	     45.00000026	      0.00000000	      0.00000000
      5.43500000	    -49.22936059	     -5.93461323	     12.62732038	      0.03459402	      0.63704227	     -1.17589723	    102.96966587	    -48.01457857	     -4.84041527	     70.63221976	      1.23276479	      4.23789910	    -10.15271316	      0.00000000	    107.73317591	    -22.65094428	     -7.35390764	     64.16116640	      1.11982361	     -4.24310626	      1.81600814	      0.00000000	      0.00000000	      0.00000000	      0.00000000	     44.99991067	    -14.99999999	     44.99991067	     75.00017585	     45.00000026	      0.00000000	      0.00000000	     44.99991067	    -14.99999999	     44.99991067	     75.00017585	     45.00000026	      0.00000000	      0.00000000
      5.44000000	    -49.11043061	     -5.87907046	     12.64803271	      0.03528014	      0.63904034	     -1.17613262	    102.44972004	    -48.00417602	     -5.11607554	     70.25612550	      1.22620071	      4.13111530	    -10.09055526	      0.00000000	    107.29171128	    -22.65383311	     -7.56348893	     63.86112535	      1.11458690	     -4.29205250	      1.95518344	      0.00000000	      0.00000000	      0.00000000	      0.00000000	     44.99991121	    -14.99999999	     44.99991121	     75.00017585	     45.00000026	      0.00000000	      0.00000000	     44.99991121	    -14.99999999	     44.99991121	     75.00017585	     45.00000026	      0.00000000	      0.00000000
      5.44500000	    -48.95051022	     -5.92011758	     12.67186982	      0.03606844	      0.64113634	     -1.17645413	    101.75091238	    -48.02081755	     -5.58789662	     69.87074197	      1.21947450	      4.06209621	    -10.01008320	      0.00000000	    106.88068717	    -22.63445801	     -7.66390517	     63.56816312	      1.10947375	     -4.35195167	      2.10346165	      0.00000000	      0.00000000	      0.00000000	      0.00000000	     44.99991161	    -14.99999999	     44.99991161	     75.00017585	     45.00000026	      0.00000000	      0.00000000	     44.99991161	    -14.99999999	     44.99991161	     75.00017585	     45.00000026	      0.00000000	      0.00000000
      5.45000000	    -48.88610628	     -5.76880424	     12.69442178	      0.03670065	      0.64297205	     -1.17660893	    101.43613616	    -47.98781916	     -5.64763802	     69.51741425	      1.21330777	      3.94495998	     -9.95407568	      0.00000000	    106.42410183	    -22.64976840	     -7.98248007	     63.26654877	      1.10420958	     -4.40549120	      2.24077450	      0.00000000	      0.00000000	      0.00000000	      0.00000000	     44.99991201	    -14.99999999	     44.99991201	     75.00017585	     45.00000026	      0.00000000	      0.00000000	     44.99991201	    -14.99999999	     44.99991201	     75.00017585	     45.00000026	      0.00000000	      0.00000000
      5.45500000	    -48.76784814	     -5.70231944	     12.72710756	      0.03746954	      0.64491319	     -1.17687267	    100.94233593	    -47.99312640	     -5.89280701	     69.16163285	      1.20709821	      3.84008284	     -9.87775884	      0.00000000	    105.97773283	    -22.63882907	     -8.20075977	     62.98020279	      1.09921190	     -4.44465615	      2.35666237	      0.00000000	      0.00000000	      0.00000000	      0.00000000	     44.99991247	    -14.99999999	     44.99991247	     75.00017585	     45.00000026	      0.00000000	      0.00000000	     44.99991247	    -14.99999999	     44.99991247	     75.00017585	     45.00000026	      0.00000000	      0.00000000
